<svg xmlns="http://www.w3.org/2000/svg" xmlns:xlink="http://www.w3.org/1999/xlink" width="16" height="14" viewBox="0 0 16 14">
  <defs>
    <style>
      .cls-1 {
        fill: none;
      }

      .cls-2 {
        clip-path: url(#clip-path);
      }

      .cls-3 {
        fill: #a5a4bf;
      }
    </style>
    <clipPath id="clip-path">
      <rect class="cls-1" width="16" height="14"/>
    </clipPath>
  </defs>
  <g id="icon_inbox" class="cls-2">
    <path id="Path_358" data-name="Path 358" class="cls-3" d="M15,1H1A1,1,0,0,0,0,2V14a1,1,0,0,0,1,1H15a1,1,0,0,0,1-1V2A1,1,0,0,0,15,1ZM14,13H2V6.723L7.5,9.868a1,1,0,0,0,.992,0L14,6.723Zm0-8.58L8,7.849,2,4.42V3H14Z" transform="translate(0 -1)"/>
  </g>
</svg>
